<svg 
 xmlns="http://www.w3.org/2000/svg"
 xmlns:xlink="http://www.w3.org/1999/xlink"
 viewbox="0 0 451 500">
<path fill-rule="evenodd"  fill="rgb(61, 169, 252)"
 d="M72.82,0.0 L379.774,0.0 C419.111,0.0 450.999,31.888 450.999,71.225 L450.999,346.153 C450.999,385.490 419.111,417.378 379.774,417.378 C298.103,417.378 216.432,417.378 134.760,417.378 C113.960,418.276 93.722,423.47 74.931,431.623 C43.639,445.906 18.109,469.958 0.857,500.0 C0.857,357.75 0.857,214.150 0.857,71.225 C0.857,31.888 32.746,0.0 72.82,0.0 Z"/>
<path fill-rule="evenodd"  fill="rgb(255, 255, 255)"
 d="M225.785,36.710 C321.729,36.710 399.507,114.489 399.507,210.433 C399.507,306.377 321.729,384.156 225.785,384.156 C129.840,384.156 52.62,306.377 52.62,210.433 C52.62,114.489 129.840,36.710 225.785,36.710 Z"/>
<path fill-rule="evenodd"  fill="rgb(61, 169, 252)"
 d="M225.782,139.65 C265.199,139.65 297.153,171.18 297.153,210.435 C297.153,249.852 265.199,281.806 225.782,281.806 C186.365,281.806 154.412,249.852 154.412,210.435 C154.412,171.18 186.365,139.65 225.782,139.65 Z"/>
</svg>